<?xml version="1.0" encoding="iso-8859-1"?>
<!-- Uploaded to: SVG Repo, www.svgrepo.com, Generator: SVG Repo Mixer Tools -->
<svg fill="#000000" height="800px" width="800px" version="1.1" id="Layer_1" xmlns="http://www.w3.org/2000/svg" xmlns:xlink="http://www.w3.org/1999/xlink" 
	 viewBox="0 0 512 512" xml:space="preserve">
<g>
	<g>
		<path d="M465.867,350.416c-15.776-59.866-45.901-123.439-51.279-131.503c-36.667-55.002-36.667-137.955,0-192.956
			C421.979,14.867,413.997,0,400.696,0h-77.913c-9.22,0-16.696,7.475-16.696,16.696c0,27.618-22.469,50.087-50.087,50.087
			c-27.618,0-50.087-22.469-50.087-50.087c0-9.22-7.475-16.696-16.696-16.696h-77.913C97.978,0,90.033,14.89,97.414,25.956
			c36.667,55.002,36.667,137.955,0,192.956c-0.387,0.581-0.853,1.417-1.131,1.976c-44.915,90.339-68.457,174.181-68.457,274.416
			c0,9.22,7.475,16.696,16.696,16.696h422.957c9.22,0,16.696-7.475,16.696-16.696C484.174,444.558,478.186,397.165,465.867,350.416z
			 M139.565,33.391h34.635c7.758,38.056,41.488,66.783,81.801,66.783s74.043-28.727,81.801-66.783h34.631
			c-12.262,26.991-18.816,57.826-18.761,89.362c0.053,31.327,6.609,61.936,18.768,88.725H139.565
			c12.21-26.889,18.766-57.613,18.766-89.043C158.33,91.006,151.774,60.28,139.565,33.391z M61.441,478.609
			c2.196-80.78,20.633-152.113,60.249-233.739h39.701v50.087c0,9.22,7.475,16.696,16.696,16.696s16.696-7.475,16.696-16.696V244.87
			h44.522v50.087c0,9.22,7.475,16.696,16.696,16.696c9.22,0,16.696-7.475,16.696-16.696V244.87h44.522v50.087
			c0,9.22,7.475,16.696,16.696,16.696s16.696-7.475,16.696-16.696V244.87h39.701c39.617,81.625,58.053,152.958,60.249,233.739
			H61.441z"/>
	</g>
</g>
</svg>