<?xml version="1.0" encoding="iso-8859-1"?>
<!-- Uploaded to: SVG Repo, www.svgrepo.com, Generator: SVG Repo Mixer Tools -->
<svg fill="#000000" height="800px" width="800px" version="1.1" id="Layer_1" xmlns="http://www.w3.org/2000/svg" xmlns:xlink="http://www.w3.org/1999/xlink" 
	 viewBox="0 0 512.001 512.001" xml:space="preserve">
<g>
	<g>
		<path d="M452.546,0.446c-1.336,0.312-264.687,66.157-267.378,66.83c-7.372,1.84-12.647,8.546-12.647,16.197
			c0,10.534,0,297.654,0,308.2c-14.352-8.573-31.815-13.239-50.088-13.239c-47.958,0-83.48,30.983-83.48,66.784
			c0,35.947,35.705,66.784,83.48,66.784c47.958,0,83.479-30.983,83.479-66.784V196.684l233.743-58.436v153.248
			c-14.352-8.573-31.815-13.239-50.088-13.239c-47.958,0-83.48,30.983-83.48,66.784c0,35.947,35.705,66.784,83.48,66.784
			c47.958,0,83.48-30.983,83.48-66.784c0-18.677,0-312.438,0-328.353C473.047,5.961,463.041-2.004,452.546,0.446z M122.433,478.609
			c-27.151,0-50.088-15.291-50.088-33.392s22.937-33.392,50.088-33.392s50.088,15.291,50.088,33.392
			S149.583,478.609,122.433,478.609z M389.568,378.433c-27.151,0-50.088-15.291-50.088-33.392s22.937-33.392,50.088-33.392
			s50.088,15.291,50.088,33.392S416.718,378.433,389.568,378.433z M439.656,103.828l-233.743,58.437V96.508l233.743-58.436V103.828z
			"/>
	</g>
</g>
</svg>