<?xml version="1.0" encoding="iso-8859-1"?>
<!-- Uploaded to: SVG Repo, www.svgrepo.com, Generator: SVG Repo Mixer Tools -->
<svg fill="#000000" height="800px" width="800px" version="1.1" id="Layer_1" xmlns="http://www.w3.org/2000/svg" xmlns:xlink="http://www.w3.org/1999/xlink" 
	 viewBox="0 0 512 512" xml:space="preserve">
<g>
	<g>
		<g>
			<path d="M503.987,200.533h4.659c-3.849-38.391-11.025-66.85-21.419-85.333h-60.561
				C426.667,157.687,460.595,195.072,503.987,200.533z"/>
			<path d="M281.6,243.2v-128h-17.067v152.141C274.466,263.817,281.6,254.327,281.6,243.2z"/>
			<path d="M85.333,115.2H24.772c-10.394,18.483-17.57,46.942-21.419,85.333h4.659C51.405,195.072,85.333,157.687,85.333,115.2z"/>
			<path d="M477.867,98.133v-25.6c0-14.114-11.486-25.6-25.6-25.6h-34.133v34.133c0,4.719-3.823,8.533-8.533,8.533
				s-8.533-3.814-8.533-8.533V46.933h-34.133v34.133c0,4.719-3.823,8.533-8.533,8.533s-8.533-3.814-8.533-8.533V46.933h-34.133
				v34.133c0,4.719-3.823,8.533-8.533,8.533s-8.533-3.814-8.533-8.533V46.933h-34.133v34.133c0,4.719-3.823,8.533-8.533,8.533
				s-8.533-3.814-8.533-8.533V46.933h-34.133v34.133c0,4.719-3.823,8.533-8.533,8.533c-4.71,0-8.533-3.814-8.533-8.533V46.933
				h-34.133v34.133c0,4.719-3.823,8.533-8.533,8.533c-4.71,0-8.533-3.814-8.533-8.533V46.933h-34.133v34.133
				c0,4.719-3.823,8.533-8.533,8.533c-4.71,0-8.533-3.814-8.533-8.533V46.933H59.733c-14.114,0-25.6,11.486-25.6,25.6v25.6H256
				h34.133H477.867z"/>
			<path d="M510.063,217.6h-6.596c-0.341,0-0.683-0.017-1.015-0.06c-52.07-6.246-92.851-51.208-92.851-102.34H298.667v128
				c0,20.6-14.686,37.837-34.133,41.805v125.09l3.908,10.496c9.89,26.598,35.601,44.476,63.983,44.476h119.842
				c44.041,0,59.733-96.973,59.733-187.733C512,255.531,511.334,235.657,510.063,217.6z"/>
			<path d="M119.367,320c0-14.114-11.486-25.6-25.6-25.6H0.19c0.247,11.452,0.759,22.895,1.562,34.133h117.615V320z"/>
			<path d="M9.549,217.54c-0.333,0.043-0.674,0.06-1.016,0.06H1.937C0.666,235.657,0,255.531,0,277.333h93.764
				c23.526,0,42.667,19.14,42.667,42.667v16.572c0.017,0.171,0.102,0.316,0.102,0.495v128h43.042
				c28.382,0,54.093-17.877,63.983-44.476l3.908-10.505V277.333V115.2H102.4C102.4,166.332,61.619,211.294,9.549,217.54z"/>
			<path d="M59.733,465.067h59.733V345.6H3.209C9.737,410.872,26.812,465.067,59.733,465.067z"/>
		</g>
	</g>
</g>
</svg>