<?xml version="1.0" encoding="iso-8859-1"?>
<!-- Uploaded to: SVG Repo, www.svgrepo.com, Generator: SVG Repo Mixer Tools -->
<svg fill="#000000" height="800px" width="800px" version="1.1" id="Layer_1" xmlns="http://www.w3.org/2000/svg" xmlns:xlink="http://www.w3.org/1999/xlink" 
	 viewBox="0 0 512 512" xml:space="preserve">
<g transform="translate(1 1)">
	<g>
		<path d="M476.867,101.072V71.533c0-14.142-11.458-25.6-25.6-25.6H58.733c-14.142,0-25.6,11.458-25.6,25.6v29.539
			C9.646,125.927-1,187.916-1,276.333c0,2.597,0.015,5.17,0.038,7.73c-0.028,0.295-0.041,0.594-0.038,0.897
			c0.088,8.019,0.302,15.886,0.627,23.593c2.01,50.301,8.865,91.693,20.3,119.093c0.091,0.218,0.18,0.438,0.271,0.653
			c0.207,0.489,0.417,0.97,0.627,1.45c0.185,0.424,0.37,0.849,0.558,1.266c0.134,0.298,0.27,0.59,0.405,0.884
			c0.266,0.58,0.534,1.156,0.805,1.722c0.073,0.151,0.146,0.3,0.219,0.45c0.337,0.695,0.677,1.381,1.021,2.054
			c0.018,0.036,0.037,0.071,0.055,0.107c7.151,13.957,15.813,23.078,25.946,26.408c0.033,0.011,0.066,0.024,0.099,0.035
			c0.502,0.163,1.008,0.309,1.517,0.443c0.068,0.018,0.135,0.04,0.203,0.058c0.478,0.123,0.961,0.227,1.445,0.325
			c0.098,0.02,0.196,0.045,0.294,0.064c0.459,0.087,0.922,0.156,1.386,0.22c0.125,0.017,0.249,0.042,0.374,0.058
			c0.458,0.057,0.92,0.095,1.383,0.13c0.133,0.01,0.264,0.028,0.397,0.036c0.595,0.037,1.195,0.056,1.799,0.056H127h51.576
			c28.522,0,54.036-17.735,63.985-44.469l11.811-31.763c0.216-0.582,13.068,31.761,13.068,31.761
			c9.949,26.736,35.464,44.471,63.985,44.471h119.842c39.054,0,59.733-77.291,59.733-187.733
			C511,187.916,500.354,125.927,476.867,101.072z M465.639,114.2c11.564,13.436,19.969,42.015,24.46,82.687
			c-37.283-9.367-64.434-43.084-64.434-82.687H465.639z M50.2,71.533c0-4.716,3.817-8.533,8.533-8.533h34.133v17.067
			c0,4.713,3.82,8.533,8.533,8.533s8.533-3.82,8.533-8.533V63h34.133v17.067c0,4.713,3.821,8.533,8.533,8.533
			c4.713,0,8.533-3.82,8.533-8.533V63h34.133v17.067c0,4.713,3.82,8.533,8.533,8.533s8.533-3.82,8.533-8.533V63h34.133v17.067
			c0,4.713,3.82,8.533,8.533,8.533c4.713,0,8.533-3.82,8.533-8.533V63h34.133v17.067c0,4.713,3.82,8.533,8.533,8.533
			s8.533-3.82,8.533-8.533V63h34.133v17.067c0,4.713,3.82,8.533,8.533,8.533s8.533-3.82,8.533-8.533V63h34.133v17.067
			c0,4.713,3.82,8.533,8.533,8.533s8.533-3.82,8.533-8.533V63h34.133c4.717,0,8.533,3.817,8.533,8.533v25.599h-42.668
			c-0.006,0-0.011,0.001-0.017,0.001H289.133H255H92.864H50.2V71.533z M263.533,114.2H280.6v128
			c0,11.145-7.124,20.628-17.067,24.143V114.2z M118.364,319v8.533H17.913c-0.792-10.845-1.337-22.245-1.602-34.133h76.453
			C106.907,293.4,118.364,304.859,118.364,319z M44.365,114.2h39.966c0,39.597-27.151,73.318-64.425,82.687
			C24.397,156.203,32.799,127.631,44.365,114.2z M58.733,447c-0.357,0-0.712-0.018-1.066-0.05c-0.155-0.014-0.309-0.041-0.464-0.062
			c-0.196-0.026-0.392-0.047-0.587-0.083c-0.206-0.038-0.412-0.089-0.618-0.137c-0.138-0.032-0.276-0.06-0.414-0.097
			c-0.246-0.067-0.491-0.146-0.735-0.229c-0.092-0.031-0.185-0.059-0.277-0.092c-0.282-0.102-0.563-0.216-0.843-0.338
			c-0.049-0.021-0.099-0.041-0.148-0.063c-0.319-0.144-0.637-0.299-0.954-0.469c-0.004-0.002-0.008-0.004-0.012-0.006
			c-15.015-8.073-27.525-45.677-33.207-100.774h99.058V447H58.733z M238.373,381.889l-11.809,31.758
			C219.103,433.698,199.966,447,178.576,447h-43.042V319c0-23.563-19.104-42.667-42.667-42.667h-0.102H16.067
			c0-22.389,0.736-43.005,2.168-61.61c47.72-9.065,83.162-50.951,83.162-100.523h145.069v162.133v96.127
			C242.957,374.348,240.008,377.487,238.373,381.889z M451.267,447H331.425c-21.391,0-40.528-13.302-47.99-33.355l-11.809-31.759
			c-1.635-4.401-4.583-7.54-8.092-9.427v-88.448c19.474-3.954,34.133-21.171,34.133-41.811v-128h110.932
			c0,49.577,35.44,91.456,83.166,100.521c1.433,18.605,2.169,39.223,2.169,61.612C493.933,375.997,474.937,447,451.267,447z"/>
	</g>
</g>
</svg>