<?xml version="1.0" encoding="iso-8859-1"?>
<!-- Uploaded to: SVG Repo, www.svgrepo.com, Generator: SVG Repo Mixer Tools -->
<svg fill="#000000" height="800px" width="800px" version="1.1" id="Layer_1" xmlns="http://www.w3.org/2000/svg" xmlns:xlink="http://www.w3.org/1999/xlink" 
	 viewBox="0 0 512 512" xml:space="preserve">
<g>
	<g>
		<path d="M415.413,8.815C412.511,3.391,406.847,0,400.696,0h-77.913c-9.217,0-16.696,7.479-16.696,16.696
			c0,27.619-22.468,50.087-50.087,50.087s-50.087-22.468-50.087-50.087C205.913,7.479,198.435,0,189.217,0h-77.913
			c-6.152,0-11.815,3.391-14.718,8.815C93.674,14.25,94,20.837,97.412,25.956c35.07,52.595,36.513,130.691,4.51,185.522h308.154
			c-32.003-54.831-30.56-132.926,4.51-185.522C418,20.837,418.326,14.25,415.413,8.815z"/>
	</g>
</g>
<g>
	<g>
		<path d="M427.022,244.87h-76.414v50.087c0,9.217-7.479,16.696-16.696,16.696c-9.217,0-16.696-7.479-16.696-16.696V244.87h-44.522
			v50.087c0,9.217-7.479,16.696-16.696,16.696s-16.696-7.479-16.696-16.696V244.87h-44.522v50.087
			c0,9.217-7.479,16.696-16.696,16.696s-16.696-7.479-16.696-16.696V244.87H84.978c-39.23,85.191-57.151,163.507-57.151,250.435
			c0,9.217,7.479,16.696,16.696,16.696h422.957c9.217,0,16.696-7.479,16.696-16.696C484.174,408.377,466.253,330.061,427.022,244.87
			z"/>
	</g>
</g>
</svg>